<?xml version="1.0" standalone="no"?>
<!DOCTYPE svg PUBLIC "-//W3C//DTD SVG 20010904//EN"
 "http://www.w3.org/TR/2001/REC-SVG-20010904/DTD/svg10.dtd">
<svg version="1.0" xmlns="http://www.w3.org/2000/svg"
 width="825.000000pt" height="825.000000pt" viewBox="0 0 825.000000 825.000000"
 preserveAspectRatio="xMidYMid meet">
<metadata>
Created by potrace 1.14, written by Peter Selinger 2001-2017
</metadata>
<g transform="translate(0.000000,825.000000) scale(0.100000,-0.100000)"
fill="#000000" stroke="none">
<path d="M3840 8230 c-69 -4 -154 -13 -190 -19 -36 -6 -101 -15 -145 -21 -116
-15 -443 -86 -500 -109 -40 -16 -250 -81 -262 -81 -7 0 -13 -4 -13 -9 0 -5
-16 -12 -36 -15 -20 -4 -63 -20 -97 -35 -34 -16 -87 -39 -117 -51 -59 -24
-242 -112 -250 -120 -3 -3 -21 -13 -40 -22 -19 -10 -57 -31 -85 -48 -27 -16
-57 -33 -65 -37 -18 -8 -111 -64 -125 -75 -20 -16 -86 -58 -91 -58 -3 0 -25
-15 -48 -32 -24 -18 -54 -40 -66 -48 -13 -8 -40 -30 -62 -47 -22 -18 -43 -33
-47 -33 -4 0 -28 -20 -54 -45 -27 -25 -50 -45 -52 -45 -2 0 -19 -13 -37 -30
-18 -16 -58 -51 -88 -77 -105 -92 -301 -294 -390 -403 -19 -23 -44 -53 -55
-65 -40 -47 -79 -97 -128 -168 -28 -40 -56 -78 -63 -85 -7 -6 -16 -21 -19 -32
-3 -11 -11 -20 -16 -20 -5 0 -9 -5 -9 -10 0 -9 -55 -97 -79 -126 -6 -7 -17
-27 -25 -45 -9 -19 -36 -70 -60 -114 -25 -44 -55 -98 -66 -120 -11 -22 -29
-56 -40 -75 -11 -19 -20 -40 -20 -47 0 -7 -4 -13 -10 -13 -5 0 -10 -8 -10 -17
0 -9 -9 -35 -19 -57 -10 -23 -26 -57 -34 -76 -8 -19 -22 -51 -31 -72 -9 -20
-16 -39 -16 -43 0 -4 -7 -21 -15 -38 -23 -52 -66 -169 -76 -212 -5 -22 -13
-49 -18 -60 -5 -11 -16 -49 -25 -85 -9 -36 -24 -92 -32 -125 -22 -79 -40 -176
-69 -370 -74 -485 -51 -1023 66 -1515 281 -1185 1076 -2188 2166 -2733 430
-216 900 -355 1398 -413 210 -25 690 -25 900 0 836 98 1589 422 2218 954 604
510 1053 1195 1281 1950 77 256 123 487 158 797 19 170 16 657 -6 840 -110
933 -498 1751 -1148 2421 -661 680 -1539 1109 -2498 1219 -162 19 -566 27
-740 15z m568 -245 c96 -4 184 -11 197 -17 41 -19 59 -94 31 -133 -11 -15 -11
-22 0 -44 17 -32 17 -52 2 -86 -20 -44 -57 -56 -156 -51 -48 3 -184 8 -302 11
-118 3 -218 9 -222 13 -4 4 -8 25 -8 47 -1 52 10 246 16 263 3 10 34 11 136 8
73 -3 211 -8 306 -11z m707 -115 c3 -5 -1 -33 -10 -62 -8 -28 -15 -53 -15 -55
0 -2 14 -3 31 -3 92 0 199 -61 199 -112 -1 -42 -37 -107 -67 -119 -30 -11
-135 9 -188 37 -15 8 -36 14 -46 14 -13 0 -19 7 -19 21 0 20 66 265 76 281 7
11 32 10 39 -2z m-225 -61 c75 -16 95 -37 95 -97 0 -73 -27 -106 -89 -110 -63
-4 -149 15 -180 39 -22 17 -26 29 -26 73 0 56 18 91 54 107 22 9 63 6 146 -12z
m565 -39 c4 -6 -3 -35 -14 -65 l-21 -55 22 0 c40 0 157 -51 178 -77 26 -33 25
-58 -2 -113 -32 -63 -60 -71 -150 -40 -38 13 -81 32 -94 43 -13 10 -28 16 -33
13 -5 -3 -14 0 -20 8 -8 10 1 45 40 147 28 74 53 137 56 142 6 10 31 9 38 -3z
m-1688 -42 c-3 -7 -5 -2 -5 12 0 14 2 19 5 13 2 -7 2 -19 0 -25z m-382 -2 c13
-13 27 -40 30 -60 4 -20 12 -36 19 -36 6 0 44 7 84 17 63 15 75 15 82 3 15
-24 -5 -36 -90 -55 -101 -23 -122 -16 -139 49 -6 24 -15 47 -20 51 -8 4 -169
-31 -178 -39 -1 -1 4 -26 12 -56 18 -68 18 -80 3 -85 -7 -2 -80 -29 -162 -59
-82 -31 -159 -56 -172 -56 -13 0 -24 -4 -24 -9 0 -10 -145 -81 -165 -81 -7 0
-18 -7 -25 -15 -7 -8 -18 -15 -26 -15 -7 0 -39 -16 -71 -35 -32 -19 -64 -35
-71 -35 -7 0 -31 -14 -52 -32 -21 -18 -67 -48 -102 -68 -66 -36 -230 -153
-331 -237 -85 -70 -118 -93 -134 -93 -8 0 -36 21 -63 46 -27 25 -53 44 -59 42
-18 -6 -131 -120 -131 -132 0 -6 20 -32 45 -56 25 -24 45 -49 45 -55 0 -18
-231 -277 -251 -282 -11 -3 -19 -9 -19 -14 0 -5 -19 -38 -43 -74 -57 -89 -87
-97 -163 -44 -39 26 -43 27 -56 11 -26 -31 -68 -98 -68 -108 0 -5 27 -26 60
-48 33 -21 60 -45 60 -52 0 -29 -30 -25 -82 10 -29 20 -57 36 -63 36 -15 0
-85 -93 -85 -113 0 -8 22 -29 49 -47 75 -48 75 -45 28 -140 -49 -99 -65 -106
-149 -70 -28 12 -54 18 -58 13 -9 -10 -50 -113 -50 -124 0 -5 29 -24 65 -41
44 -22 65 -38 65 -50 0 -24 -19 -23 -86 7 -31 14 -61 25 -66 25 -13 0 -70
-132 -61 -140 4 -4 34 -18 67 -31 32 -13 60 -29 63 -36 6 -16 -36 -165 -53
-184 -8 -8 -14 -32 -14 -51 0 -52 -36 -162 -61 -184 -41 -37 -144 -12 -172 42
-12 23 -10 37 14 120 15 52 25 103 22 113 -8 31 13 33 93 11 42 -12 80 -18 84
-13 5 4 15 34 23 66 l16 59 -57 25 c-64 28 -72 36 -72 76 0 29 52 151 70 162
5 3 10 14 10 23 0 9 14 49 31 89 41 93 59 101 140 68 l60 -24 30 62 c26 56 28
63 13 72 -71 44 -94 66 -94 94 0 26 65 141 88 155 6 3 20 25 31 49 12 23 37
63 56 90 43 57 69 61 135 17 25 -16 48 -30 51 -30 3 0 23 26 44 57 l38 57 -30
25 c-36 31 -53 61 -53 95 0 35 111 162 150 171 31 7 87 -16 96 -40 4 -8 -26
-51 -70 -102 -77 -89 -86 -103 -63 -103 18 1 34 16 116 110 41 47 84 95 94
107 20 22 20 22 -22 69 -61 70 -58 87 41 178 54 50 89 76 105 76 15 0 43 -18
73 -46 l50 -47 53 48 c28 27 56 52 61 56 5 4 -15 40 -44 79 -47 64 -54 69 -71
58 -10 -7 -36 -26 -58 -41 -39 -28 -61 -29 -61 -2 0 7 23 30 51 50 44 33 49
41 44 65 -8 35 10 48 35 25 17 -16 26 -11 162 91 78 59 178 134 221 166 77 57
117 72 117 44 0 -16 -49 -55 -295 -237 -82 -61 -151 -114 -153 -118 -3 -10 96
-141 107 -141 4 0 47 30 95 66 l88 66 -20 21 c-79 87 -46 154 110 222 20 9 38
25 41 36 9 33 26 21 72 -51 25 -38 50 -70 55 -70 11 0 140 79 140 86 0 2 -22
52 -50 110 -54 113 -61 148 -32 142 11 -2 37 -44 72 -115 30 -61 58 -115 62
-118 5 -5 109 36 125 49 2 2 -6 21 -17 44 -28 57 -26 89 9 120 30 28 139 72
179 72 34 0 60 -17 77 -50 8 -16 15 -32 15 -35 0 -8 -83 -45 -158 -69 -66 -22
-83 -39 -45 -44 16 -2 277 87 300 102 1 1 -7 35 -17 76 -11 41 -20 80 -20 86
0 20 29 24 45 7 15 -14 23 -14 98 5 106 26 104 26 132 -2z m235 -32 c0 -8 -4
-14 -10 -14 -5 0 -10 9 -10 21 0 11 5 17 10 14 6 -3 10 -13 10 -21z m-177 -14
c3 -11 1 -20 -4 -20 -5 0 -9 9 -9 20 0 11 2 20 4 20 2 0 6 -9 9 -20z m-166
-52 c-3 -8 -6 -5 -6 6 -1 11 2 17 5 13 3 -3 4 -12 1 -19z m-152 -58 c3 -5 1
-10 -4 -10 -6 0 -11 5 -11 10 0 6 2 10 4 10 3 0 8 -4 11 -10z m2611 -35 c3 -8
-9 -44 -27 -80 -18 -36 -30 -66 -28 -68 28 -22 164 -87 174 -83 8 3 28 32 45
66 28 56 51 73 65 50 3 -5 -8 -36 -25 -69 -16 -33 -30 -66 -30 -74 0 -7 25
-25 55 -40 61 -30 75 -33 75 -15 0 24 51 77 80 83 53 12 210 -94 210 -142 0
-30 -30 -23 -72 19 -23 24 -60 52 -81 61 -35 17 -40 17 -62 3 -26 -17 -42 -57
-30 -76 8 -13 241 -170 252 -170 4 1 20 18 35 40 16 23 39 42 55 46 35 9 102
-26 157 -83 22 -23 49 -43 59 -43 36 0 29 -30 -22 -93 l-52 -62 52 -47 53 -48
63 61 c52 50 66 59 78 49 9 -8 13 -21 9 -36 -5 -19 5 -36 55 -87 34 -35 61
-72 61 -82 0 -9 -13 -33 -30 -52 -16 -18 -30 -39 -30 -46 0 -7 20 -33 45 -57
46 -46 56 -74 30 -84 -14 -5 -80 44 -112 84 -19 23 -15 57 12 106 l26 46 -20
31 c-11 18 -35 47 -54 66 l-35 33 -45 -41 c-24 -23 -50 -41 -57 -41 -16 0
-140 109 -140 124 0 7 -17 20 -38 29 -22 9 -67 44 -100 77 -34 33 -64 60 -67
60 -14 0 -277 183 -282 196 -3 7 -12 14 -21 14 -8 0 -43 16 -78 35 l-63 36
-26 -51 c-41 -81 -57 -83 -180 -22 -121 60 -130 74 -95 147 22 45 46 58 56 31
3 -8 -2 -28 -10 -45 -9 -16 -16 -34 -16 -39 0 -10 151 -92 169 -92 12 0 58 86
50 94 -2 2 -41 22 -86 45 -46 22 -90 52 -98 65 -15 23 -15 28 6 78 39 92 72
128 85 93z m-1106 -380 c285 -32 446 -63 570 -111 19 -7 54 -16 78 -19 23 -4
42 -11 42 -16 0 -5 10 -9 23 -9 19 0 108 -32 222 -80 78 -32 212 -97 223 -107
7 -7 21 -13 31 -13 10 0 28 -9 41 -20 13 -11 29 -20 37 -20 8 0 19 -5 26 -10
22 -19 211 -140 218 -140 4 0 9 -7 13 -15 3 -8 10 -15 17 -15 6 0 23 -10 38
-22 15 -13 43 -34 61 -48 19 -14 44 -34 55 -45 12 -11 39 -33 61 -50 21 -16
53 -43 70 -60 18 -16 61 -58 98 -93 36 -34 66 -64 66 -67 0 -9 111 -136 143
-164 9 -9 17 -20 17 -26 0 -6 20 -32 45 -58 25 -27 45 -51 45 -55 0 -5 7 -17
15 -27 8 -11 28 -37 45 -59 16 -21 30 -42 30 -47 0 -4 6 -14 13 -21 16 -17 77
-117 77 -127 0 -4 9 -16 19 -25 11 -10 22 -29 26 -44 4 -15 10 -29 13 -32 7
-4 112 -216 132 -265 42 -100 80 -202 80 -216 0 -9 7 -30 15 -45 8 -16 15 -41
15 -55 0 -15 7 -40 15 -55 8 -16 15 -36 15 -45 0 -9 6 -32 14 -50 8 -19 18
-67 21 -107 4 -39 12 -72 16 -72 5 0 9 -19 9 -42 0 -24 7 -83 16 -133 20 -123
29 -451 15 -610 -16 -189 -31 -309 -40 -315 -5 -3 -11 -41 -15 -84 -4 -44 -13
-91 -21 -105 -7 -15 -16 -48 -20 -74 -4 -26 -11 -50 -16 -53 -5 -3 -9 -17 -9
-32 0 -15 -7 -40 -15 -56 -8 -15 -15 -36 -15 -45 0 -20 -68 -194 -116 -299
-19 -41 -32 -78 -28 -83 3 -5 27 -9 55 -9 l49 0 0 -40 0 -40 -62 -2 c-98 -2
-104 -5 -130 -58 -36 -73 -147 -253 -196 -315 -4 -5 -24 -34 -45 -62 -39 -53
-79 -101 -128 -155 -15 -15 -35 -40 -45 -54 -59 -81 -394 -394 -423 -394 -6 0
-11 -4 -11 -8 0 -10 -96 -82 -109 -82 -5 0 -11 -7 -15 -15 -3 -8 -12 -15 -20
-15 -8 0 -19 -6 -23 -13 -8 -13 -45 -36 -180 -117 -40 -23 -73 -46 -73 -51 0
-5 -11 -9 -24 -9 -14 0 -31 -7 -40 -15 -8 -8 -21 -15 -28 -16 -7 0 -26 -9 -43
-19 -35 -23 -94 -50 -106 -50 -5 0 -9 -4 -9 -10 0 -5 -7 -10 -15 -10 -8 0 -34
-8 -58 -19 -23 -10 -58 -24 -77 -31 -19 -7 -48 -18 -65 -25 -16 -7 -50 -18
-75 -26 -25 -7 -47 -16 -50 -19 -3 -3 -34 -11 -70 -19 -36 -7 -75 -19 -87 -27
-12 -8 -35 -14 -51 -14 -16 0 -42 -4 -58 -9 -58 -18 -181 -42 -264 -51 -47 -5
-121 -14 -165 -20 -100 -13 -503 -13 -610 0 -268 32 -340 44 -431 71 -17 5
-39 9 -50 9 -10 0 -50 11 -89 25 -38 13 -82 25 -97 25 -16 0 -28 4 -28 8 0 4
-21 13 -47 20 -27 7 -61 19 -78 27 -16 7 -68 28 -115 47 -47 18 -86 36 -88 41
-2 4 -9 7 -14 7 -15 0 -160 72 -176 88 -7 6 -19 12 -27 12 -11 0 -99 52 -130
77 -5 5 -29 17 -52 27 -24 11 -43 22 -43 26 0 4 -12 13 -27 21 -16 8 -33 19
-40 24 -6 6 -36 28 -67 50 -31 22 -56 43 -56 47 0 4 -6 8 -12 8 -7 1 -33 21
-58 45 -25 25 -48 45 -53 45 -4 0 -31 22 -59 50 -28 28 -52 50 -54 50 -11 0
-236 243 -242 260 -2 5 -18 24 -35 42 -55 57 -117 141 -117 158 0 5 -4 10 -9
10 -4 0 -21 19 -37 42 -16 24 -32 45 -36 46 -5 2 -8 9 -8 16 0 6 -18 38 -40
71 -22 33 -40 63 -40 66 0 12 -93 174 -102 177 -4 2 -8 12 -8 23 0 13 -7 19
-24 19 -32 0 -44 20 -17 27 12 3 21 7 21 8 0 4 -30 73 -58 135 -17 37 -52 139
-112 326 -6 17 -10 42 -10 57 0 15 -4 27 -9 27 -6 0 -13 21 -16 48 -3 26 -13
79 -20 117 -30 148 -37 206 -47 390 -15 273 1 546 47 780 8 39 17 91 20 118 3
26 10 47 16 47 5 0 9 13 9 28 0 30 93 326 109 346 4 6 16 35 26 64 9 30 28 73
41 95 13 23 24 50 24 60 0 9 4 17 8 17 4 0 13 15 20 33 11 30 51 107 85 162 7
11 27 43 44 72 18 30 33 58 33 63 0 6 4 10 9 10 5 0 14 14 21 30 7 17 16 30
21 30 5 0 9 5 9 11 0 9 46 76 80 116 5 7 10 17 10 23 0 5 3 10 8 10 4 0 17 16
30 34 13 19 38 50 55 68 18 19 61 68 97 109 74 85 228 240 283 284 20 17 58
49 84 72 27 24 54 43 61 43 6 0 12 4 12 8 0 5 25 26 56 48 30 21 62 45 69 52
7 6 18 12 24 12 6 0 19 8 29 18 10 9 34 26 53 36 19 11 36 23 39 26 5 7 36 24
108 60 23 11 42 25 42 30 0 5 18 14 40 20 22 6 40 15 40 20 0 6 4 10 10 10 8
0 87 33 227 96 17 8 34 14 38 14 3 0 26 9 49 20 24 11 65 25 90 32 25 7 46 15
46 19 0 4 24 10 53 14 28 4 64 14 79 21 15 8 36 14 47 14 11 0 32 5 48 12 30
12 125 32 233 48 36 5 76 14 90 20 66 27 591 37 790 15z m-1393 -11 c-3 -3
-12 -4 -19 -1 -8 3 -5 6 6 6 11 1 17 -2 13 -5z m40 -60 c-3 -3 -12 -4 -19 -1
-8 3 -5 6 6 6 11 1 17 -2 13 -5z m-257 -94 c-8 -5 -19 -10 -25 -10 -5 0 -3 5
5 10 8 5 20 10 25 10 6 0 3 -5 -5 -10z m-203 -96 c-3 -3 -12 -4 -19 -1 -8 3
-5 6 6 6 11 1 17 -2 13 -5z m-50 -30 c-3 -3 -12 -4 -19 -1 -8 3 -5 6 6 6 11 1
17 -2 13 -5z m4306 -463 c52 -65 59 -91 24 -91 -16 0 -39 18 -70 54 -52 60
-61 96 -24 96 15 0 37 -19 70 -59z m302 -38 c11 -17 36 -57 55 -89 19 -32 53
-86 76 -120 23 -34 51 -81 63 -104 12 -23 35 -59 50 -79 32 -41 48 -85 43
-118 -4 -29 -57 -73 -88 -73 -14 0 -40 -16 -65 -40 l-42 -40 30 -48 c21 -34
35 -46 49 -44 101 18 122 12 148 -43 9 -19 24 -52 33 -72 27 -58 22 -101 -12
-129 -17 -13 -39 -24 -51 -24 -22 0 -29 13 -77 134 -21 55 -47 85 -47 54 0
-16 98 -249 110 -262 4 -4 31 -3 59 3 88 19 112 -6 146 -151 l19 -78 -23 -24
c-13 -14 -40 -27 -60 -31 -63 -10 -67 -17 -50 -72 l15 -48 55 0 c102 -1 113
-14 129 -148 15 -122 1 -147 -83 -147 -56 0 -61 -8 -50 -76 9 -48 10 -49 41
-46 37 4 92 -20 110 -48 6 -11 13 -58 13 -105 2 -79 0 -88 -22 -110 -26 -25
-77 -40 -96 -27 -7 5 -15 49 -19 115 -10 153 -25 119 -22 -49 l3 -139 58 -10
c73 -12 101 -41 93 -94 -3 -20 -8 -65 -12 -100 -9 -89 -27 -105 -109 -98 -72
7 -75 4 -75 -73 0 -27 -3 -55 -6 -64 -7 -19 -50 -21 -57 -3 -4 13 9 137 18
167 9 28 51 41 111 34 42 -5 54 -4 54 7 0 8 5 43 10 79 5 36 6 68 2 72 -4 4
-36 11 -70 14 -48 5 -65 12 -73 27 -7 12 -10 89 -8 206 1 102 -1 216 -5 253
-11 91 3 113 73 121 29 3 56 9 62 13 12 7 0 139 -16 164 -4 6 -35 7 -80 3
l-73 -6 -12 44 c-6 24 -15 60 -21 79 -5 19 -9 43 -9 52 0 28 38 55 86 63 24 3
46 10 49 15 3 5 -4 46 -16 91 l-23 81 -30 -6 c-17 -4 -52 -9 -78 -12 -43 -6
-48 -4 -57 17 -80 188 -114 280 -118 313 -3 23 -21 66 -39 97 -19 31 -34 66
-34 77 0 12 18 36 41 56 29 25 40 40 35 52 -3 9 -34 60 -69 113 -34 53 -67
105 -74 116 -80 133 -129 208 -140 212 -7 3 -33 -7 -57 -21 -44 -26 -76 -26
-76 -1 0 18 11 26 140 100 63 36 122 64 130 63 8 -2 23 -17 35 -35z m-6850
-1529 c13 -9 25 -10 35 -4 31 20 80 11 111 -19 34 -34 33 -27 14 -196 -8 -71
-21 -201 -30 -287 -8 -86 -18 -164 -22 -173 -5 -14 -16 -16 -72 -10 -152 14
-232 25 -241 30 -6 4 -7 34 -4 76 6 63 5 69 -12 70 -16 1 -16 2 -2 6 22 6 25
17 38 138 5 55 13 124 16 153 6 46 5 52 -12 53 -15 1 -16 2 -3 6 18 4 29 32
29 75 0 87 81 129 155 82z m-228 -150 c-3 -3 -12 -4 -19 -1 -8 3 -5 6 6 6 11
1 17 -2 13 -5z m116 -541 c-7 -2 -21 -2 -30 0 -10 3 -4 5 12 5 17 0 24 -2 18
-5z"/>
<path d="M4006 7909 c-4 -23 -5 -44 -2 -46 6 -7 87 -10 357 -18 237 -6 244 -5
237 52 -3 25 -8 29 -48 34 -25 3 -156 9 -291 13 l-246 6 -7 -41z"/>
<path d="M4000 7762 l0 -48 123 -2 c67 -1 192 -5 278 -8 170 -6 199 -1 199 40
0 49 13 47 -427 61 l-173 5 0 -48z m300 8 c0 -11 -4 -20 -10 -20 -5 0 -10 9
-10 20 0 11 5 20 10 20 6 0 10 -9 10 -20z m-183 -12 c-3 -8 -6 -5 -6 6 -1 11
2 17 5 13 3 -3 4 -12 1 -19z"/>
<path d="M5083 7698 c-17 -21 -25 -56 -18 -78 4 -14 26 -25 74 -40 38 -11 75
-20 84 -20 23 0 49 44 45 77 -3 24 -10 30 -57 45 -84 27 -116 31 -128 16z"/>
<path d="M4752 7768 c-21 -25 -25 -73 -9 -90 17 -17 147 -41 171 -32 18 7 29
41 24 75 -3 27 -43 44 -125 55 -37 4 -52 2 -61 -8z"/>
<path d="M5407 7595 c-17 -17 -31 -70 -23 -84 8 -12 131 -61 155 -61 25 0 41
21 48 63 l5 34 -75 32 c-87 36 -90 36 -110 16z"/>
<path d="M2890 7581 c-80 -32 -90 -38 -90 -56 0 -14 33 -5 125 34 11 5 31 13
45 18 24 9 24 10 5 20 -15 7 -36 4 -85 -16z"/>
<path d="M2265 7272 c-39 -24 -61 -45 -63 -59 -4 -30 26 -73 51 -73 26 0 144
69 152 88 9 24 -28 77 -55 79 -14 1 -51 -14 -85 -35z m85 -43 c0 -5 -4 -9 -10
-9 -5 0 -10 7 -10 16 0 8 5 12 10 9 6 -3 10 -10 10 -16z"/>
<path d="M1391 6523 c-34 -38 -51 -66 -51 -82 1 -24 5 -22 51 29 28 30 60 67
71 83 19 27 19 27 -1 27 -11 0 -41 -24 -70 -57z"/>
<path d="M636 5111 c-17 -18 -46 -109 -46 -143 0 -22 56 -51 84 -44 18 4 27
21 44 80 24 82 21 103 -15 117 -35 13 -48 11 -67 -10z"/>
<path d="M6411 7014 c-12 -15 -21 -35 -21 -45 0 -20 112 -119 135 -119 13 0
65 55 65 68 -1 23 -114 122 -140 122 -10 0 -28 -12 -39 -26z"/>
<path d="M3980 6900 c-151 -17 -237 -31 -275 -44 -22 -8 -68 -18 -102 -21 -35
-4 -63 -11 -63 -15 0 -4 -21 -11 -47 -15 -27 -4 -61 -13 -78 -20 -16 -7 -41
-16 -55 -20 -28 -8 -175 -61 -205 -75 -118 -54 -178 -80 -186 -80 -5 0 -9 -4
-9 -10 0 -5 -12 -13 -27 -16 -16 -4 -35 -12 -43 -19 -8 -7 -33 -21 -55 -31
-37 -17 -126 -71 -150 -91 -5 -5 -28 -20 -50 -33 -22 -13 -46 -30 -53 -37 -7
-7 -17 -13 -22 -13 -5 0 -17 -8 -27 -18 -10 -10 -54 -44 -98 -77 -44 -33 -83
-65 -87 -71 -10 -16 -87 -94 -93 -94 -8 0 -145 -142 -145 -151 0 -5 -7 -9 -15
-9 -8 0 -15 -4 -15 -10 0 -5 -15 -25 -32 -44 -18 -19 -38 -40 -43 -48 -41 -54
-81 -105 -92 -118 -32 -36 -113 -150 -113 -159 0 -5 -6 -16 -13 -23 -37 -39
-207 -345 -207 -374 0 -7 -6 -19 -13 -26 -14 -14 -40 -84 -98 -263 -22 -66
-45 -133 -50 -150 -16 -44 -29 -104 -36 -160 -3 -27 -9 -52 -13 -55 -5 -3 -13
-58 -20 -122 -6 -65 -15 -132 -21 -150 -12 -42 -11 -490 1 -543 5 -22 14 -92
20 -155 7 -63 15 -117 20 -120 4 -3 10 -27 13 -55 9 -75 26 -148 37 -159 6 -6
10 -18 10 -27 0 -17 44 -149 96 -292 15 -43 33 -76 39 -74 5 3 11 -11 12 -29
1 -19 11 -47 22 -63 12 -16 21 -34 21 -40 0 -6 8 -11 18 -12 56 -2 71 -6 86
-21 16 -17 44 -24 116 -31 19 -2 -12 -5 -69 -5 l-103 -2 6 -25 c3 -13 19 -44
35 -67 15 -24 37 -59 47 -78 10 -19 21 -37 24 -40 3 -3 19 -25 35 -50 17 -25
33 -46 38 -48 4 -2 7 -10 7 -18 0 -8 5 -14 10 -14 6 0 13 -8 17 -18 3 -9 22
-35 42 -58 20 -22 55 -62 78 -90 93 -110 336 -342 413 -394 12 -8 32 -23 43
-34 12 -10 46 -35 76 -55 29 -20 68 -46 85 -58 17 -12 37 -22 44 -22 6 -1 12
-5 12 -10 0 -5 12 -14 28 -20 35 -15 71 -36 85 -50 6 -6 19 -11 29 -11 10 0
18 -4 18 -10 0 -5 12 -13 28 -16 15 -4 34 -12 42 -19 8 -6 35 -20 60 -29 25
-10 50 -22 55 -26 6 -5 44 -21 85 -35 41 -15 79 -31 84 -36 6 -5 19 -9 31 -9
11 0 30 -6 41 -14 11 -8 48 -20 82 -26 34 -7 60 -16 57 -20 -2 -3 33 -13 78
-20 45 -7 89 -17 97 -21 20 -12 239 -46 385 -60 150 -14 503 -6 640 15 55 9
120 19 145 22 25 3 72 14 105 24 34 10 86 21 118 25 31 4 55 11 52 15 -3 4 17
11 43 14 26 4 63 13 82 21 19 8 91 35 160 60 68 25 129 50 135 55 5 4 29 14
53 21 23 6 42 15 42 19 0 5 12 11 27 15 16 4 33 11 39 16 11 9 80 48 139 77
17 9 32 19 35 22 3 4 24 17 46 28 23 12 48 27 56 34 20 19 50 38 71 44 9 4 17
10 17 15 0 5 11 14 25 19 14 5 25 14 25 20 0 5 7 10 15 10 8 0 15 5 15 10 0 6
12 16 27 23 15 6 35 19 44 27 9 8 42 40 75 70 32 30 74 67 94 81 19 15 43 35
53 45 10 11 47 49 82 86 36 37 65 70 65 73 0 8 17 27 63 74 20 21 37 41 37 46
0 4 16 27 35 51 19 23 35 46 35 51 0 4 9 14 20 21 11 7 20 16 20 22 0 8 35 66
57 95 26 34 42 65 34 69 -4 3 -48 1 -97 -5 -49 -6 -354 -14 -679 -19 -324 -5
-682 -14 -795 -20 -199 -11 -1317 -7 -1385 4 -16 3 -73 8 -125 11 -229 13
-462 27 -685 41 -340 22 -624 32 -892 33 -211 1 -264 7 -217 25 9 3 28 6 43 6
16 0 55 13 87 30 54 27 68 30 157 30 54 0 106 4 115 9 9 5 274 12 587 16 491
7 573 6 585 -7 20 -19 126 -48 176 -48 22 0 70 8 106 19 37 10 70 16 73 13 3
-3 5 0 5 6 0 22 21 12 62 -28 22 -22 49 -42 59 -45 11 -4 19 -11 19 -16 0 -5
5 -9 11 -9 5 0 43 -16 83 -36 72 -35 74 -35 212 -36 147 -2 209 10 304 55 53
26 57 29 119 85 l48 42 548 0 547 0 42 -28 c47 -32 118 -62 145 -62 11 0 21
-6 24 -12 3 -10 45 -13 167 -13 122 0 164 3 168 13 2 6 13 12 25 12 23 0 167
68 179 85 5 6 8 5 8 -2 0 -18 97 -18 103 0 3 9 7 9 19 0 11 -10 17 -10 26 -1
9 9 12 9 12 0 0 -8 17 -12 48 -12 42 0 50 3 65 29 9 16 17 35 17 43 0 8 9 24
20 36 11 12 20 28 20 36 0 8 4 17 9 20 4 3 18 34 30 68 12 35 27 71 32 82 18
32 60 158 72 216 6 30 15 58 20 61 4 3 12 30 16 60 4 30 11 61 16 69 11 18 32
144 45 265 5 50 13 110 19 135 13 57 14 404 1 467 -5 26 -14 89 -19 138 -14
126 -30 223 -46 270 -8 22 -17 61 -20 88 -3 26 -10 47 -14 47 -5 0 -11 19 -14
43 -5 39 -47 161 -83 245 -8 17 -21 49 -30 70 -31 71 -88 187 -95 192 -4 3
-11 19 -15 35 -4 17 -15 38 -25 48 -11 10 -19 24 -19 31 0 8 -6 18 -13 25 -8
6 -26 34 -40 63 -15 29 -43 71 -62 93 -19 22 -35 45 -35 52 0 7 -5 13 -10 13
-6 0 -15 11 -20 25 -5 14 -14 25 -20 25 -5 0 -10 5 -10 10 0 6 -8 18 -17 29
-10 10 -29 34 -43 52 -41 55 -297 321 -361 374 -71 59 -160 125 -168 125 -6 0
-14 6 -18 13 -8 12 -108 80 -188 127 -22 13 -42 26 -45 30 -3 3 -33 19 -67 35
-35 17 -63 33 -63 38 0 4 -7 7 -16 7 -8 0 -57 20 -107 44 -95 46 -244 106
-263 106 -6 0 -31 9 -55 19 -24 11 -65 22 -91 26 -27 4 -48 11 -48 15 0 4 -30
12 -67 17 -38 6 -102 18 -143 26 -41 9 -102 21 -135 28 -69 14 -644 21 -745 9z
m1055 -430 c3 -5 28 -10 54 -10 95 0 321 -61 321 -86 0 -7 16 -22 35 -34 19
-12 35 -26 35 -31 0 -5 7 -9 15 -9 8 0 15 -4 15 -9 0 -5 8 -12 18 -15 28 -9
77 -57 94 -91 25 -48 31 -112 18 -161 -7 -24 -17 -44 -21 -44 -5 0 -9 -7 -9
-15 0 -9 -7 -18 -15 -21 -8 -4 -15 -12 -15 -18 0 -19 -66 -73 -135 -112 -79
-44 -120 -64 -131 -64 -8 0 -14 -4 -14 -9 0 -5 -15 -12 -33 -15 -19 -4 -51
-15 -73 -25 -21 -10 -64 -24 -94 -31 -53 -12 -190 -60 -238 -83 -16 -8 -21
-16 -16 -31 4 -12 12 -24 17 -28 13 -8 -17 -78 -33 -78 -5 0 -10 -18 -10 -39
0 -63 -7 -71 -57 -71 -27 0 -42 -4 -38 -10 3 -5 -3 -10 -14 -10 -12 0 -21 -4
-21 -10 0 -11 54 -3 87 12 27 13 44 2 23 -13 -12 -9 -12 -10 3 -5 9 3 17 1 17
-5 0 -12 49 -59 61 -59 5 0 9 5 9 10 0 6 -6 10 -13 10 -8 0 -20 11 -27 25 -7
14 -17 25 -22 25 -4 0 -8 11 -8 25 0 14 5 25 10 25 6 0 10 -11 10 -23 0 -35
32 -58 97 -72 55 -12 56 -13 19 -14 -22 -1 -37 -4 -33 -7 11 -11 66 -14 72 -4
8 13 87 12 145 -1 25 -5 84 -15 133 -21 48 -6 87 -15 87 -20 0 -4 15 -8 33 -9
55 0 309 -57 362 -80 11 -5 38 -13 60 -18 129 -31 195 -70 230 -136 15 -29 35
-55 45 -58 10 -3 36 10 60 29 24 19 55 37 69 41 14 3 29 11 33 16 4 6 45 11
96 10 70 0 94 -4 107 -16 9 -10 21 -17 26 -17 14 0 66 -56 74 -79 3 -12 10
-21 15 -21 5 0 12 -20 16 -45 3 -25 10 -45 14 -45 10 0 23 -70 15 -78 -3 -4
-10 0 -15 8 -7 10 -10 11 -10 3 0 -9 -20 -13 -65 -13 -36 0 -65 3 -65 8 0 4
-20 12 -45 18 -25 6 -45 9 -45 8 0 -1 15 -11 33 -20 24 -13 58 -18 132 -20 97
-2 121 -6 157 -25 10 -5 26 -9 36 -9 10 0 49 -16 88 -35 38 -19 75 -35 82 -35
11 0 16 -13 13 -33 -1 -5 8 -20 19 -34 41 -53 36 -55 -152 -51 -168 3 -174 2
-195 -19 -13 -13 -23 -27 -23 -33 0 -5 -4 -10 -10 -10 -5 0 -10 -7 -10 -15 0
-9 -6 -18 -13 -21 -8 -3 -14 -10 -14 -17 0 -7 -12 -38 -27 -69 -15 -31 -29
-65 -30 -75 -2 -10 -13 -34 -24 -53 -11 -19 -24 -52 -28 -73 -3 -21 -12 -41
-20 -44 -7 -2 -17 -18 -23 -34 -5 -16 -15 -29 -20 -29 -6 0 -11 -9 -11 -19 0
-12 -9 -21 -25 -25 -31 -8 -66 -36 -59 -48 3 -4 14 -8 25 -8 11 0 29 -9 41
-19 30 -29 18 -67 -30 -86 -20 -9 -42 -23 -49 -32 -10 -13 -44 -16 -199 -20
-103 -2 -197 -2 -209 1 -33 8 -42 42 -41 141 2 98 0 115 -18 115 -12 0 -56 63
-56 80 0 5 -5 10 -11 10 -6 0 -9 7 -5 15 3 8 0 18 -7 22 -14 9 -87 153 -87
171 0 7 -4 12 -9 12 -5 0 -13 10 -17 23 -4 12 -19 38 -34 57 -15 19 -35 50
-45 69 -14 29 -89 137 -130 189 -41 52 -79 73 -223 121 -76 25 -111 31 -180
31 -48 0 -114 7 -147 16 -33 8 -73 18 -90 21 -16 3 -35 9 -41 14 -6 5 -35 14
-65 20 -30 6 -60 16 -67 22 -14 11 -339 14 -382 4 -14 -4 -54 -13 -90 -22 -36
-8 -73 -20 -82 -25 -10 -6 -25 -10 -33 -10 -8 0 -32 -9 -52 -20 -21 -11 -43
-20 -49 -20 -6 0 -23 -10 -37 -22 -59 -52 -79 -68 -88 -68 -5 0 -9 -7 -9 -15
0 -8 -4 -15 -10 -15 -14 0 -90 -75 -90 -89 0 -6 -5 -11 -11 -11 -13 0 -48 -40
-49 -56 0 -6 -9 -19 -20 -29 -11 -10 -20 -24 -20 -32 0 -8 -5 -11 -10 -8 -6 4
-13 -8 -17 -25 -3 -18 -12 -34 -19 -37 -6 -2 -18 -19 -25 -36 -7 -18 -21 -41
-31 -51 -10 -11 -18 -30 -18 -42 0 -13 -8 -27 -17 -33 -10 -5 -15 -13 -11 -17
4 -4 -8 -22 -27 -40 -22 -21 -35 -42 -35 -58 0 -14 -5 -26 -11 -26 -5 0 -15
-13 -20 -30 -6 -16 -15 -30 -20 -30 -5 0 -9 -7 -9 -16 0 -9 -8 -18 -19 -21
-11 -3 -18 -14 -18 -28 0 -13 -10 -33 -22 -46 -11 -13 -21 -29 -21 -36 0 -8
-4 -11 -10 -8 -5 3 -11 1 -11 -4 -1 -6 -2 -16 -3 -22 -1 -13 -45 -59 -57 -59
-5 0 -9 -9 -9 -20 0 -11 -6 -20 -13 -20 -8 0 -19 -11 -27 -24 -7 -13 -22 -27
-33 -30 -16 -4 -18 -8 -9 -19 14 -16 6 -28 -14 -20 -8 3 -14 0 -14 -7 0 -6 -4
-8 -10 -5 -5 3 -7 0 -4 -9 3 -8 -3 -19 -15 -25 -11 -6 -23 -20 -26 -31 -3 -11
-17 -23 -30 -26 -13 -3 -26 -12 -29 -19 -2 -7 -18 -16 -35 -20 -16 -3 -35 -13
-42 -21 -6 -8 -17 -14 -24 -14 -8 0 -15 -4 -17 -9 -1 -6 -14 -11 -28 -13 -14
-2 -35 -9 -46 -16 -12 -6 -52 -16 -90 -21 -38 -6 -90 -14 -116 -19 -36 -7 -55
-5 -78 6 -16 8 -30 18 -30 22 0 4 -11 20 -25 36 -14 16 -25 34 -25 40 0 11
-41 109 -60 145 -5 9 -12 33 -15 53 -4 20 -11 36 -15 36 -4 0 -11 12 -15 27
-3 15 -16 48 -27 73 -11 25 -20 47 -19 49 2 2 -1 7 -6 10 -4 3 -23 38 -42 76
-19 39 -47 89 -63 112 -15 23 -28 46 -28 52 0 6 -5 11 -12 11 -6 0 -31 20 -55
45 -23 25 -47 45 -53 45 -5 0 -10 4 -10 10 0 5 -12 13 -27 16 -16 4 -37 13
-48 20 -27 19 -105 18 -134 -3 -23 -16 -24 -16 -19 5 8 30 -15 18 -30 -16 -6
-16 -21 -38 -32 -49 -10 -12 -22 -33 -26 -47 -3 -14 -10 -26 -14 -26 -5 0 -14
-32 -21 -70 -12 -68 -29 -103 -29 -60 0 23 39 152 49 160 3 3 15 23 26 45 28
55 104 132 140 141 17 4 33 12 36 17 4 6 68 10 154 10 143 0 148 0 168 23 16
18 23 21 30 12 5 -8 6 -5 2 9 -4 15 1 29 14 42 12 12 21 26 21 31 0 6 6 10 13
10 8 0 25 12 39 28 49 53 88 77 88 54 0 -5 49 -12 110 -15 60 -4 117 -12 127
-18 31 -20 95 -110 89 -125 -3 -9 -1 -12 5 -9 5 4 21 -4 34 -17 38 -38 48 -44
95 -56 43 -11 46 -11 67 16 13 15 23 33 23 40 0 6 6 12 14 12 8 0 38 21 68 46
l53 46 80 -5 c104 -6 185 -30 209 -62 20 -27 30 -22 56 30 8 17 17 32 20 35 3
3 14 24 25 47 11 24 23 43 28 43 4 0 7 5 7 12 0 6 11 34 24 62 14 29 28 64 31
79 4 15 11 27 15 27 5 0 16 21 26 48 10 26 21 49 24 52 4 3 12 26 20 53 7 26
16 47 21 47 4 0 10 14 14 30 4 17 11 30 16 30 5 0 9 7 9 15 0 24 39 57 60 50
10 -3 21 -1 25 4 3 7 0 8 -9 5 -12 -5 -16 0 -16 20 0 19 5 26 19 26 11 0 41
11 67 25 26 14 55 25 65 25 11 0 19 4 19 9 0 5 19 12 43 16 23 4 44 11 47 14
5 8 82 25 185 42 33 6 74 14 90 19 17 5 98 12 180 16 83 4 155 11 162 16 6 5
37 12 67 15 31 3 56 10 56 16 0 5 -9 7 -20 4 -15 -4 -20 0 -20 14 0 10 -4 19
-10 19 -5 0 -10 13 -10 29 0 15 -3 49 -6 75 -6 40 -10 46 -25 41 -24 -8 -250
14 -264 25 -6 5 -39 11 -75 15 -71 7 -109 14 -242 46 -96 22 -131 37 -198 83
-58 41 -76 61 -105 121 -32 65 -31 99 4 165 17 30 36 66 43 80 7 14 18 31 25
38 7 7 13 19 13 25 0 23 104 107 169 138 159 76 190 89 229 95 23 4 42 10 42
14 0 4 26 12 58 18 31 6 93 20 137 31 44 12 121 24 170 27 50 4 94 10 100 15
13 13 352 12 360 -1z m1915 -1937 c30 -36 40 -71 28 -97 -12 -29 -64 -57 -87
-48 -11 4 -5 9 18 15 19 4 40 14 47 22 17 17 18 52 2 70 -39 44 -46 55 -30 55
4 0 14 -8 22 -17z m-205 -134 c30 -2 11 -5 -49 -8 -85 -5 -100 -9 -110 -26 -6
-11 -14 -22 -18 -25 -9 -7 -48 -162 -48 -192 0 -12 -5 -30 -11 -38 -8 -11 -9
4 -4 55 3 39 10 74 16 80 5 5 9 18 9 28 0 24 29 85 52 112 14 16 28 20 65 18
27 -1 71 -3 98 -4z m-2265 -25 c41 -10 77 -22 80 -25 3 -4 19 -11 35 -15 17
-4 46 -18 65 -31 19 -12 40 -23 46 -23 6 0 22 -10 36 -22 14 -13 36 -33 49
-44 29 -26 69 -76 69 -86 0 -5 6 -8 14 -8 7 0 16 -8 19 -17 3 -10 14 -34 25
-53 34 -62 50 -103 84 -210 l33 -105 0 -230 c0 -279 -12 -336 -70 -334 -11 0
-14 3 -7 6 17 7 15 23 -3 23 -8 0 -21 -12 -29 -27 -15 -28 -20 -22 -17 27 l2
25 -21 -24 c-18 -20 -21 -21 -26 -6 -4 10 -1 21 7 25 7 5 10 12 7 16 -11 10
-38 -22 -38 -46 0 -12 -4 -19 -9 -16 -5 3 -12 -14 -15 -39 -4 -25 -11 -45 -16
-45 -4 0 -7 -8 -6 -17 0 -10 -5 -17 -12 -15 -8 1 -11 -2 -7 -7 9 -16 -6 -61
-20 -61 -8 0 -20 6 -27 13 -7 7 -21 16 -30 20 -25 9 -22 27 5 28 15 0 17 2 7
6 -8 3 -18 11 -22 17 -4 6 -12 -2 -19 -21 -6 -18 -14 -33 -18 -33 -4 0 -14
-19 -20 -42 -10 -33 -10 -43 -1 -46 20 -7 76 -60 69 -66 -3 -3 -23 10 -45 29
-42 37 -54 42 -54 23 0 -30 -157 -193 -216 -225 -22 -12 -57 -24 -77 -28 -20
-4 -37 -12 -37 -17 0 -14 -146 -4 -209 15 -29 9 -61 23 -70 31 -10 9 -23 16
-30 16 -16 0 -141 113 -141 128 0 4 -14 22 -30 41 -17 18 -30 38 -30 44 0 6
-3 8 -6 4 -6 -6 29 -77 52 -107 6 -8 15 -26 18 -40 6 -23 6 -23 -5 -5 -7 11
-15 22 -18 25 -4 3 -18 29 -31 58 -14 28 -28 52 -33 52 -5 0 -5 10 -2 21 5 14
3 19 -4 15 -7 -5 -10 7 -7 36 2 24 2 37 -1 31 -8 -21 -26 -15 -20 7 3 11 1 18
-4 15 -5 -4 -7 13 -5 36 3 31 2 39 -6 28 -7 -11 -9 -9 -5 8 3 15 1 20 -9 16
-19 -7 -18 2 4 23 16 17 16 18 0 11 -12 -4 -18 -2 -18 8 0 8 6 15 13 15 9 0 8
3 -2 9 -7 5 -10 14 -7 20 4 6 0 11 -8 11 -9 0 -16 5 -16 10 0 6 6 10 13 10 8
0 9 3 1 8 -20 13 -23 51 -6 62 16 9 16 9 0 10 -10 0 -18 5 -18 10 0 6 8 11 18
11 16 1 16 2 -1 6 -16 4 -17 17 -13 153 2 82 9 157 15 169 6 11 11 30 11 43 0
41 71 270 90 288 3 3 15 26 28 52 12 26 35 60 50 77 15 16 38 45 51 63 14 19
43 48 66 66 23 17 52 41 65 52 12 11 32 22 44 26 11 4 23 10 26 14 3 4 34 17
70 28 79 26 212 25 330 -4z m970 -186 c11 -23 20 -48 20 -55 0 -7 4 -13 9 -13
13 0 20 -63 9 -77 -7 -9 -7 -17 1 -26 22 -27 42 -100 30 -108 -7 -4 -9 -19 -7
-33 5 -24 2 -26 -29 -26 -21 0 -36 6 -39 15 -4 9 -13 13 -24 10 -18 -6 -40 30
-40 65 0 11 -4 20 -10 20 -5 0 -10 7 -10 15 0 8 5 15 10 15 6 0 10 28 10 65 0
36 4 65 8 65 4 0 8 10 9 22 1 11 6 24 11 27 6 3 8 18 7 34 -5 40 12 33 35 -15z
m1367 -13 c7 -20 -2 -29 -21 -22 -9 4 -13 13 -10 22 8 19 23 19 31 0z m-247
-85 c8 -5 11 -12 8 -16 -4 -3 -14 1 -23 10 -18 17 -9 21 15 6z m132 -111 c32
-33 66 -75 75 -92 8 -18 19 -34 23 -37 14 -11 70 -125 76 -156 3 -19 10 -34
14 -34 14 0 30 -168 28 -310 -1 -107 -3 -129 -8 -85 -7 59 -7 59 -10 15 -1
-25 -2 -48 -1 -52 0 -5 -3 -8 -9 -8 -5 0 -10 5 -10 11 0 6 -7 3 -16 -5 -8 -9
-24 -21 -35 -26 -10 -6 -19 -18 -19 -26 0 -8 -5 -12 -10 -9 -6 3 -14 -4 -19
-17 -6 -13 -10 -17 -10 -10 -1 6 -13 13 -28 13 l-28 2 28 4 c33 5 36 23 5 24
-21 1 -21 2 -3 6 40 10 36 22 -9 28 -49 8 -63 25 -21 25 14 0 25 -4 25 -10 0
-5 9 -10 20 -10 33 0 23 17 -17 29 l-38 11 38 -5 c55 -6 50 22 -5 32 l-43 8
45 6 45 6 -42 1 c-24 1 -43 7 -43 12 0 6 3 9 8 9 4 -1 23 0 42 1 34 3 34 3
-10 10 -35 5 -38 7 -15 9 17 1 37 6 45 11 11 7 3 10 -30 11 l-45 1 45 13 45
13 -41 1 c-40 1 -42 2 -46 37 -3 24 1 38 11 43 13 8 12 11 -2 26 -20 19 -14
33 17 45 20 9 20 9 1 9 -12 1 -26 -4 -33 -11 -7 -7 -12 -8 -12 -4 0 4 10 16
23 27 16 13 18 19 7 19 -11 0 -10 4 5 12 19 11 19 11 0 19 -17 7 -18 8 -2 8
25 1 21 21 -5 22 l-23 0 23 9 c12 5 22 17 22 27 0 32 -51 173 -61 167 -5 -3
-9 4 -9 15 0 11 -11 33 -25 49 -14 17 -25 35 -25 41 0 6 -4 11 -9 11 -5 0 -12
8 -15 17 -6 16 -6 16 12 0 23 -21 42 -22 42 -3 0 8 5 16 11 18 8 3 6 10 -5 21
-10 9 -14 17 -10 17 4 0 33 -27 66 -61z m-4768 30 c49 -21 114 -82 137 -127 8
-15 17 -29 20 -32 10 -9 47 -94 65 -150 9 -30 21 -64 25 -75 4 -11 11 -39 14
-62 4 -27 12 -43 21 -43 15 0 19 -37 16 -164 -1 -73 -7 -90 -22 -66 -8 12 -10
11 -10 -6 0 -20 -51 -195 -70 -239 -4 -11 -15 -41 -25 -67 -9 -27 -21 -48 -26
-48 -6 0 -8 -4 -5 -9 6 -9 -21 -71 -31 -71 -3 0 -3 11 -1 24 4 19 1 23 -11 18
-13 -4 -12 -1 3 17 18 20 30 91 15 91 -11 0 -26 -24 -33 -55 -4 -16 -11 -32
-15 -35 -4 -3 -19 -26 -34 -51 -36 -63 -107 -129 -139 -129 -10 0 -18 -4 -18
-10 0 -5 -19 -10 -42 -9 -33 0 -38 2 -23 9 11 5 32 11 46 14 30 6 159 128 159
151 0 8 4 15 8 15 5 0 15 19 22 43 7 23 16 44 20 47 4 3 10 23 12 45 3 22 3
32 1 23 -2 -10 -8 -18 -12 -18 -5 0 -11 -14 -15 -31 -13 -68 -122 -209 -161
-209 -9 0 -13 -4 -10 -10 4 -6 -17 -10 -54 -10 -34 0 -61 4 -61 10 0 6 -7 10
-15 10 -16 0 -58 39 -84 78 -8 12 -18 19 -22 16 -4 -2 -5 5 -2 16 4 14 1 19
-8 17 -8 -2 -11 -2 -6 0 11 7 9 43 -3 43 -5 0 -10 10 -10 23 0 13 -4 27 -10
33 -5 5 -13 39 -17 74 l-8 65 -6 -45 c-3 -25 -5 56 -4 180 1 143 5 232 12 245
6 11 17 53 24 93 7 39 16 72 20 72 5 0 11 17 15 38 3 20 12 42 19 47 7 6 21
26 31 45 31 57 78 118 99 129 11 6 38 22 60 36 49 30 89 31 149 4z m-427 -71
c-3 -8 -6 -5 -6 6 -1 11 2 17 5 13 3 -3 4 -12 1 -19z m10 -90 c-3 -8 -6 -5 -6
6 -1 11 2 17 5 13 3 -3 4 -12 1 -19z m44 -46 c-7 -2 -18 1 -23 6 -8 8 -4 9 13
5 13 -4 18 -8 10 -11z m5119 -162 c0 -5 -4 -10 -10 -10 -5 0 -10 5 -10 10 0 6
5 10 10 10 6 0 10 -4 10 -10z m-5193 -392 c-3 -8 -6 -5 -6 6 -1 11 2 17 5 13
3 -3 4 -12 1 -19z m5236 -45 c-7 -2 -19 -2 -25 0 -7 3 -2 5 12 5 14 0 19 -2
13 -5z m184 -40 c-3 -10 -5 -4 -5 12 0 17 2 24 5 18 2 -7 2 -21 0 -30z m-4074
20 c-35 -2 -91 -2 -125 0 -35 2 -7 3 62 3 69 0 97 -1 63 -3z m200 -10 c-7 -2
-19 -2 -25 0 -7 3 -2 5 12 5 14 0 19 -2 13 -5z m3680 0 c-7 -2 -19 -2 -25 0
-7 3 -2 5 12 5 14 0 19 -2 13 -5z m-3450 -50 c3 -21 9 -54 12 -73 l6 -35 -16
34 c-8 18 -15 48 -15 67 0 32 -1 33 -47 37 l-48 3 51 2 52 2 5 -37z m3444 21
c-3 -3 -12 -4 -19 -1 -8 3 -5 6 6 6 11 1 17 -2 13 -5z m-4377 -14 c0 -5 -4
-10 -10 -10 -5 0 -10 5 -10 10 0 6 5 10 10 10 6 0 10 -4 10 -10z m4430 -10
c11 -8 7 -9 -15 -4 -37 8 -45 14 -19 14 10 0 26 -5 34 -10z m-67 -7 c-7 -2
-19 -2 -25 0 -7 3 -2 5 12 5 14 0 19 -2 13 -5z m207 -8 c0 -8 -4 -15 -10 -15
-5 0 -10 7 -10 15 0 8 5 15 10 15 6 0 10 -7 10 -15z m-161 -9 c9 -11 6 -12
-14 -8 -14 2 -22 8 -19 13 8 13 20 11 33 -5z m-52 -12 c-3 -3 -12 -4 -19 -1
-8 3 -5 6 6 6 11 1 17 -2 13 -5z m190 -36 c-3 -8 -6 -5 -6 6 -1 11 2 17 5 13
3 -3 4 -12 1 -19z m-5347 -35 c0 -7 -4 -13 -10 -13 -5 0 -10 12 -10 28 0 21 2
24 10 12 5 -8 10 -21 10 -27z m5160 7 c8 -5 11 -12 7 -17 -5 -4 -11 -3 -15 3
-4 6 -14 14 -22 17 -13 5 -13 5 0 6 8 0 22 -3 30 -9z m177 -12 c-3 -8 -6 -5
-6 6 -1 11 2 17 5 13 3 -3 4 -12 1 -19z m-2177 4 c0 -4 14 -13 30 -19 17 -6
30 -18 30 -27 0 -21 -16 -20 -32 2 -7 10 -21 21 -30 25 -19 7 -25 27 -8 27 6
0 10 -4 10 -8z m280 -7 c0 -8 -4 -15 -9 -15 -5 0 -7 -9 -4 -20 3 -11 1 -20 -5
-20 -5 0 -13 -11 -16 -25 -6 -24 -26 -36 -26 -15 0 6 4 10 9 10 5 0 14 23 21
50 11 47 30 69 30 35z m110 5 c0 -5 -18 -10 -40 -10 -22 0 -40 5 -40 10 0 6
18 10 40 10 22 0 40 -4 40 -10z m1601 -28 c-7 -2 -18 1 -23 6 -8 8 -4 9 13 5
13 -4 18 -8 10 -11z m-1976 -17 c29 -23 32 -28 22 -49 -13 -26 -30 -22 -70 14
-26 25 -5 34 23 10 13 -11 28 -20 33 -20 6 0 -7 16 -29 35 -45 39 -29 47 21
10z m1950 -35 c3 -6 -1 -7 -9 -4 -18 7 -21 14 -7 14 6 0 13 -4 16 -10z m-1980
-88 c-3 -3 -14 3 -25 13 -29 26 -38 9 -10 -20 13 -14 19 -25 14 -25 -17 0 -59
53 -46 58 7 2 12 11 12 20 0 12 8 8 30 -13 16 -16 28 -31 25 -33z m-3068 -14
c-3 -8 -6 -5 -6 6 -1 11 2 17 5 13 3 -3 4 -12 1 -19z m3033 -40 c0 -4 -4 -8
-10 -8 -5 0 -10 6 -10 14 0 8 -7 16 -15 20 -8 3 -15 10 -15 16 0 5 11 0 25
-12 14 -12 25 -25 25 -30z m-20 -15 c12 -11 12 -13 -1 -13 -9 0 -21 12 -28 28
-9 22 -9 24 2 12 7 -8 19 -21 27 -27z m-56 11 c3 -8 2 -12 -4 -9 -6 3 -10 10
-10 16 0 14 7 11 14 -7z m36 -49 c0 -5 -5 -3 -10 5 -5 8 -10 20 -10 25 0 6 5
3 10 -5 5 -8 10 -19 10 -25z m1257 -1091 c-3 -3 -12 -4 -19 -1 -8 3 -5 6 6 6
11 1 17 -2 13 -5z m-157 -94 c0 -5 -8 -10 -17 -10 -15 0 -16 2 -3 10 19 12 20
12 20 0z m-55 -30 c-3 -5 -10 -10 -15 -10 -5 0 -32 -13 -60 -30 -58 -34 -61
-35 -54 -15 4 8 14 15 25 15 10 0 22 6 26 13 4 7 24 18 43 24 19 6 36 11 38
12 2 1 0 -3 -3 -9z m-161 -85 c-4 -8 -17 -15 -29 -15 -13 0 -30 -7 -39 -15
-16 -17 -56 -20 -56 -5 0 5 16 12 35 16 19 3 39 12 46 20 16 19 50 18 43 -1z
m-134 -53 c0 -9 -130 -55 -137 -48 -3 3 7 10 23 16 16 6 43 17 59 25 33 16 55
19 55 7z m-170 -64 c-14 -5 -33 -14 -42 -19 -26 -13 -38 -11 -32 5 5 13 20 17
89 24 6 0 -1 -4 -15 -10z m-110 -38 c-20 -13 -40 -13 -40 0 0 6 12 10 28 10
21 0 24 -2 12 -10z m-97 -27 c-13 -2 -35 -2 -50 0 -16 2 -5 4 22 4 28 0 40 -2
28 -4z m-145 -30 c-10 -2 -28 -2 -40 0 -13 2 -5 4 17 4 22 1 32 -1 23 -4z
m-170 -30 c-10 -2 -28 -2 -40 0 -13 2 -5 4 17 4 22 1 32 -1 23 -4z m-245 -30
c-7 -2 -19 -2 -25 0 -7 3 -2 5 12 5 14 0 19 -2 13 -5z"/>
<path d="M4790 6290 c-30 -5 -85 -8 -122 -9 -38 -1 -68 -3 -68 -6 0 -17 117
-133 155 -153 43 -23 163 -62 191 -62 13 0 24 -4 24 -8 0 -10 137 -32 199 -32
64 0 221 22 221 31 0 5 16 11 35 15 21 4 35 12 35 21 0 18 -81 103 -97 103 -7
0 -13 5 -13 10 0 6 -5 10 -11 10 -6 0 -25 6 -42 14 -69 30 -148 46 -277 56
-74 6 -144 12 -155 14 -11 2 -45 0 -75 -4z"/>
<path d="M4193 6183 c-13 -2 -23 -9 -23 -14 0 -5 -9 -9 -19 -9 -11 0 -21 -3
-23 -7 -1 -5 -28 -20 -58 -36 -76 -38 -140 -76 -154 -90 -54 -57 -66 -80 -66
-125 0 -26 7 -56 15 -66 8 -11 46 -29 84 -41 63 -20 103 -23 211 -16 40 3 120
122 120 178 0 13 5 23 10 23 6 0 10 23 10 50 0 28 -4 50 -9 50 -5 0 -11 22
-15 49 -8 59 -19 66 -83 54z"/>
<path d="M4628 5313 c6 -2 18 -2 25 0 6 3 1 5 -13 5 -14 0 -19 -2 -12 -5z"/>
<path d="M4560 5300 c0 -5 7 -10 15 -10 8 0 15 5 15 10 0 6 -7 10 -15 10 -8 0
-15 -4 -15 -10z"/>
<path d="M4473 5283 c15 -2 39 -2 55 0 15 2 2 4 -28 4 -30 0 -43 -2 -27 -4z"/>
<path d="M4264 5270 c17 -6 36 -5 45 0 11 7 3 9 -29 9 -42 -1 -43 -1 -16 -9z"/>
<path d="M4158 5253 c7 -3 16 -2 19 1 4 3 -2 6 -13 5 -11 0 -14 -3 -6 -6z"/>
<path d="M4073 5243 c9 -2 23 -2 30 0 6 3 -1 5 -18 5 -16 0 -22 -2 -12 -5z"/>
<path d="M4018 5223 c6 -2 18 -2 25 0 6 3 1 5 -13 5 -14 0 -19 -2 -12 -5z"/>
<path d="M5028 5223 c12 -2 32 -2 45 0 12 2 2 4 -23 4 -25 0 -35 -2 -22 -4z"/>
<path d="M3948 5213 c6 -2 18 -2 25 0 6 3 1 5 -13 5 -14 0 -19 -2 -12 -5z"/>
<path d="M5128 5213 c12 -2 30 -2 40 0 9 3 -1 5 -23 4 -22 0 -30 -2 -17 -4z"/>
<path d="M3890 5200 c0 -5 5 -10 10 -10 6 0 10 5 10 10 0 6 -4 10 -10 10 -5 0
-10 -4 -10 -10z"/>
<path d="M5205 5200 c-4 -6 7 -10 24 -10 17 0 31 5 31 10 0 6 -11 10 -24 10
-14 0 -28 -4 -31 -10z"/>
<path d="M5291 5186 c10 -10 59 -14 59 -5 0 5 -14 9 -32 9 -17 0 -29 -2 -27
-4z"/>
<path d="M4728 5163 c7 -3 16 -2 19 1 4 3 -2 6 -13 5 -11 0 -14 -3 -6 -6z"/>
<path d="M4810 5167 c0 -2 16 -20 35 -41 39 -43 44 -62 18 -69 -13 -3 -11 -5
6 -6 21 -1 23 2 18 29 -6 29 -77 109 -77 87z"/>
<path d="M5398 5163 c7 -3 16 -2 19 1 4 3 -2 6 -13 5 -11 0 -14 -3 -6 -6z"/>
<path d="M3780 5149 c0 -5 5 -7 10 -4 6 3 10 8 10 11 0 2 -4 4 -10 4 -5 0 -10
-5 -10 -11z"/>
<path d="M4265 5149 c-27 -5 -72 -13 -100 -19 -27 -5 -64 -12 -82 -14 -17 -2
-36 -7 -41 -10 -5 -3 -42 -10 -83 -16 -40 -6 -77 -14 -83 -19 -6 -5 -35 -12
-63 -16 -29 -4 -53 -11 -53 -16 0 -5 -13 -9 -28 -9 -27 0 -52 -15 -52 -33 0
-9 33 -4 115 18 129 35 198 50 375 81 41 7 90 16 109 20 33 7 34 6 27 -22 -4
-16 -12 -30 -17 -32 -11 -4 -12 -42 -1 -42 5 0 14 22 21 50 7 27 17 52 22 56
14 8 11 34 -3 33 -7 -1 -35 -5 -63 -10z"/>
<path d="M4685 5141 c-6 -19 2 -51 14 -51 3 0 17 -3 31 -6 20 -4 19 -2 -7 12
-31 15 -45 44 -23 44 6 0 10 5 10 10 0 17 -18 11 -25 -9z"/>
<path d="M5445 5150 c3 -5 17 -10 30 -10 13 0 27 5 30 10 4 6 -8 10 -30 10
-22 0 -34 -4 -30 -10z"/>
<path d="M5533 5133 c9 -2 23 -2 30 0 6 3 -1 5 -18 5 -16 0 -22 -2 -12 -5z"/>
<path d="M3710 5120 c-8 -5 -12 -11 -10 -14 3 -2 14 2 24 10 22 15 10 19 -14
4z"/>
<path d="M5600 5123 c14 -2 37 -9 52 -14 15 -6 33 -7 40 -3 14 9 -47 23 -92
22 l-25 -1 25 -4z"/>
<path d="M5718 5093 c6 -2 18 -2 25 0 6 3 1 5 -13 5 -14 0 -19 -2 -12 -5z"/>
<path d="M5428 5083 c18 -2 45 -2 60 0 15 2 0 4 -33 4 -33 0 -45 -2 -27 -4z"/>
<path d="M5775 5080 c3 -5 10 -10 16 -10 5 0 9 5 9 10 0 6 -7 10 -16 10 -8 0
-12 -4 -9 -10z"/>
<path d="M4780 5070 c0 -5 15 -10 33 -10 24 0 28 3 17 10 -20 13 -50 13 -50 0z"/>
<path d="M5585 5070 c-15 -6 -7 -9 30 -9 36 -1 46 2 35 9 -18 12 -38 12 -65 0z"/>
<path d="M5818 5063 c6 -2 18 -2 25 0 6 3 1 5 -13 5 -14 0 -19 -2 -12 -5z"/>
<path d="M4640 5051 c0 -5 7 -11 14 -14 10 -4 13 -1 9 9 -6 15 -23 19 -23 5z"/>
<path d="M5708 5053 c6 -2 18 -2 25 0 6 3 1 5 -13 5 -14 0 -19 -2 -12 -5z"/>
<path d="M5865 5050 c3 -5 10 -10 16 -10 5 0 9 5 9 10 0 6 -7 10 -16 10 -8 0
-12 -4 -9 -10z"/>
<path d="M3626 5033 c-4 -9 -3 -20 1 -24 4 -4 9 3 9 17 2 28 -1 31 -10 7z"/>
<path d="M5775 5039 c-4 -5 5 -9 19 -9 14 0 26 4 26 8 0 11 -39 12 -45 1z"/>
<path d="M4961 5024 c-1 -27 -19 -34 -86 -34 -30 0 -57 -4 -60 -10 -4 -6 18
-10 59 -10 37 0 66 4 66 10 0 6 7 10 15 10 8 0 15 -7 15 -17 0 -9 2 -14 5 -11
3 3 1 23 -4 44 -5 21 -9 29 -10 18z"/>
<path d="M5920 5026 c14 -7 29 -10 34 -8 11 6 -20 20 -44 21 -8 0 -4 -5 10
-13z"/>
<path d="M4690 5020 c0 -5 5 -10 10 -10 6 0 10 5 10 10 0 6 -4 10 -10 10 -5 0
-10 -4 -10 -10z"/>
<path d="M5848 5023 c6 -2 18 -2 25 0 6 3 1 5 -13 5 -14 0 -19 -2 -12 -5z"/>
<path d="M4245 5000 l-30 -8 27 -1 c15 0 30 4 33 9 3 6 5 9 3 9 -2 -1 -16 -5
-33 -9z"/>
<path d="M4728 5003 c7 -3 16 -2 19 1 4 3 -2 6 -13 5 -11 0 -14 -3 -6 -6z"/>
<path d="M5898 5003 c7 -3 16 -2 19 1 4 3 -2 6 -13 5 -11 0 -14 -3 -6 -6z"/>
<path d="M5955 4999 c-17 -8 -15 -8 7 -4 21 4 26 2 22 -9 -3 -8 3 -16 15 -19
19 -5 19 -4 4 19 -17 26 -19 27 -48 13z"/>
<path d="M3608 4993 c16 -6 15 -23 -2 -23 -8 0 -17 -7 -20 -16 -10 -26 0 -28
24 -4 22 22 21 51 -2 49 -10 0 -10 -2 0 -6z"/>
<path d="M4773 4993 c9 -2 23 -2 30 0 6 3 -1 5 -18 5 -16 0 -22 -2 -12 -5z"/>
<path d="M4160 4980 c0 -5 -9 -10 -21 -10 -11 0 -18 -4 -15 -9 3 -5 21 -3 41
3 46 16 54 26 22 26 -15 0 -27 -4 -27 -10z"/>
<path d="M6260 4960 c0 -5 7 -7 15 -4 8 4 15 8 15 10 0 2 -7 4 -15 4 -8 0 -15
-4 -15 -10z"/>
<path d="M6359 4943 c-7 -16 -15 -31 -17 -35 -2 -5 1 -8 6 -8 5 0 13 11 16 25
4 14 17 30 29 35 21 8 21 9 1 9 -13 1 -26 -9 -35 -26z"/>
<path d="M6196 4935 c-8 -9 -28 -20 -43 -26 -47 -16 -55 -40 -42 -114 7 -35
16 -62 21 -59 4 3 8 -9 8 -25 0 -17 5 -31 10 -31 6 0 10 10 10 23 0 20 4 22
38 19 34 -3 39 0 55 31 15 28 17 39 8 56 -17 31 -53 51 -81 45 -14 -3 -35 -8
-47 -11 -30 -7 -32 26 -3 34 11 3 18 8 15 12 -2 4 12 13 31 20 18 7 34 16 34
21 0 5 8 11 18 13 15 4 15 5 0 6 -9 0 -24 -6 -32 -14z"/>
<path d="M4040 4930 c0 -5 5 -10 10 -10 6 0 10 5 10 10 0 6 -4 10 -10 10 -5 0
-10 -4 -10 -10z"/>
<path d="M3561 4898 c0 -10 -5 -18 -10 -18 -5 0 -12 -16 -15 -35 -4 -19 -11
-35 -16 -35 -4 0 -14 -22 -21 -50 -7 -27 -16 -50 -20 -50 -4 0 -9 -10 -12 -22
-6 -22 -6 -22 13 2 11 14 22 40 26 57 3 18 9 31 13 28 4 -2 13 18 20 45 7 27
17 50 23 52 6 2 8 13 5 23 -4 17 -5 17 -6 3z"/>
<path d="M3940 4891 c0 -5 -13 -12 -29 -16 -16 -3 -32 -13 -35 -21 -4 -10 10
-6 42 12 57 32 60 34 39 34 -9 0 -17 -4 -17 -9z"/>
<path d="M5341 4884 c0 -11 3 -14 6 -6 3 7 2 16 -1 19 -3 4 -6 -2 -5 -13z"/>
<path d="M6332 4833 c-2 -65 4 -93 20 -93 7 0 7 5 0 13 -6 7 -13 42 -15 77
l-3 65 -2 -62z"/>
<path d="M6413 4835 c-3 -9 -3 -19 1 -22 3 -4 6 1 6 10 0 8 8 18 18 20 16 4
16 5 -1 6 -10 0 -20 -6 -24 -14z"/>
<path d="M6475 4841 c11 -5 33 -22 49 -37 l28 -29 -48 -6 -49 -6 63 -1 64 -2
-46 45 c-26 25 -54 45 -64 44 -14 0 -13 -2 3 -8z"/>
<path d="M3835 4830 c4 -6 11 -8 16 -5 14 9 11 15 -7 15 -8 0 -12 -5 -9 -10z"/>
<path d="M5352 4820 c0 -14 2 -19 5 -12 2 6 2 18 0 25 -3 6 -5 1 -5 -13z"/>
<path d="M3810 4810 c-9 -6 -10 -10 -3 -10 6 0 15 5 18 10 8 12 4 12 -15 0z"/>
<path d="M6413 4790 c2 -8 12 -16 23 -17 13 -2 15 -1 4 4 -8 3 -19 11 -23 17
-6 7 -7 6 -4 -4z"/>
<path d="M5360 4760 c0 -11 5 -20 10 -20 6 0 10 9 10 20 0 11 -4 20 -10 20 -5
0 -10 -9 -10 -20z"/>
<path d="M3677 4700 c-16 -17 -22 -27 -13 -24 12 5 52 54 44 54 -2 0 -16 -14
-31 -30z"/>
<path d="M5380 4721 c0 -6 4 -13 10 -16 6 -3 7 1 4 9 -7 18 -14 21 -14 7z"/>
<path d="M5405 4680 c3 -5 8 -10 11 -10 2 0 4 5 4 10 0 6 -5 10 -11 10 -5 0
-7 -4 -4 -10z"/>
<path d="M6160 4572 c0 -70 -4 -102 -11 -102 -8 0 -10 -20 -7 -62 3 -35 3 -55
1 -45 -8 31 -23 18 -24 -20 -1 -44 -21 -164 -30 -178 -4 -5 -10 -25 -14 -42
-3 -18 -10 -33 -15 -33 -4 0 -11 -12 -14 -26 -7 -26 -14 -37 -50 -76 -15 -17
-27 -20 -71 -16 -47 4 -58 10 -99 51 -25 26 -46 50 -46 54 0 3 -7 13 -15 22
-8 9 -23 26 -34 38 -10 11 -22 31 -26 44 -4 13 -13 29 -19 36 -24 27 -32 40
-60 96 -15 31 -32 57 -36 57 -24 0 24 -107 87 -197 13 -17 23 -36 23 -42 0 -6
5 -11 11 -11 12 0 39 -25 39 -36 0 -4 25 -32 55 -61 37 -34 67 -54 90 -59 19
-3 35 -10 35 -15 0 -16 157 -11 174 6 8 8 20 15 27 15 7 0 10 3 7 6 -4 3 -23
1 -45 -5 -37 -10 -37 -10 -16 7 32 25 70 85 78 123 4 19 11 39 16 45 5 6 12
63 15 128 4 68 11 112 15 104 6 -8 8 -3 8 17 0 17 -3 24 -6 17 -2 -6 -9 -10
-14 -6 -14 8 -11 24 6 24 8 0 15 9 15 20 0 12 -7 20 -17 20 -15 0 -16 -2 -3
-10 13 -8 13 -10 -2 -10 -9 0 -19 -10 -21 -22 -2 -13 -2 -7 0 12 7 46 5 221
-2 228 -3 3 -5 -40 -5 -96z m-15 -292 c3 -6 -1 -7 -9 -4 -18 7 -21 14 -7 14 6
0 13 -4 16 -10z m-5 -49 c0 -5 -7 -11 -15 -15 -9 -3 -15 0 -15 9 0 8 7 15 15
15 8 0 15 -4 15 -9z m-32 -123 c-6 -18 -28 -21 -28 -4 0 9 7 16 16 16 9 0 14
-5 12 -12z m-31 -65 c0 -7 -4 -13 -8 -13 -4 0 -9 6 -12 13 -3 8 0 14 7 14 7 0
13 -6 13 -14z"/>
<path d="M6648 4644 c18 -9 35 -14 39 -10 9 9 2 13 -37 20 l-35 7 33 -17z"/>
<path d="M3435 4623 c-3 -15 -10 -30 -14 -33 -5 -3 -12 -16 -15 -30 -7 -22 -6
-22 11 5 28 45 44 85 34 85 -5 0 -12 -12 -16 -27z"/>
<path d="M6730 4623 c8 -3 21 -10 28 -16 7 -5 15 -7 19 -3 10 9 0 15 -33 20
-16 2 -22 1 -14 -1z"/>
<path d="M6818 4588 c17 -6 32 -15 32 -19 0 -5 5 -9 10 -9 6 0 10 4 10 9 0 9
-55 32 -74 30 -6 -1 4 -6 22 -11z"/>
<path d="M3561 4564 c0 -11 3 -14 6 -6 3 7 2 16 -1 19 -3 4 -6 -2 -5 -13z"/>
<path d="M5476 4560 c4 -14 12 -32 19 -40 7 -8 15 -22 18 -30 4 -12 6 -12 6 2
1 9 -5 23 -12 30 -7 7 -18 24 -25 38 l-12 25 6 -25z"/>
<path d="M2240 4541 c0 -5 -19 -28 -42 -50 -22 -23 -38 -41 -35 -41 3 0 29 23
58 50 34 32 46 50 36 50 -10 0 -17 -4 -17 -9z"/>
<path d="M2350 4539 c32 -4 59 -4 65 2 5 5 -16 9 -55 8 l-65 -1 55 -9z"/>
<path d="M2483 4523 c9 -2 23 -2 30 0 6 3 -1 5 -18 5 -16 0 -22 -2 -12 -5z"/>
<path d="M3376 4514 c-9 -24 -7 -27 9 -10 17 17 19 26 6 26 -5 0 -12 -7 -15
-16z"/>
<path d="M2538 4490 c12 -11 22 -26 22 -32 0 -6 3 -9 6 -6 9 10 -14 45 -33 52
-14 6 -13 2 5 -14z"/>
<path d="M3505 4499 c-11 -16 -1 -19 13 -3 7 8 8 14 3 14 -5 0 -13 -5 -16 -11z"/>
<path d="M3008 4463 c12 -2 30 -2 40 0 9 3 -1 5 -23 4 -22 0 -30 -2 -17 -4z"/>
<path d="M5527 4449 c6 -22 23 -26 23 -5 0 8 -6 16 -14 19 -10 4 -12 0 -9 -14z"/>
<path d="M2952 4445 c-7 -8 -9 -15 -4 -15 5 0 15 7 22 15 16 19 -1 19 -18 0z"/>
<path d="M3103 4453 c9 -2 25 -2 35 0 9 3 1 5 -18 5 -19 0 -27 -2 -17 -5z"/>
<path d="M3466 4433 c-6 -14 -5 -15 5 -6 7 7 10 15 7 18 -3 3 -9 -2 -12 -12z"/>
<path d="M2135 4429 c-11 -16 -1 -19 13 -3 7 8 8 14 3 14 -5 0 -13 -5 -16 -11z"/>
<path d="M2582 4426 c7 -8 15 -12 17 -11 5 6 -10 25 -20 25 -5 0 -4 -6 3 -14z"/>
<path d="M3195 4433 c11 -3 24 -10 28 -17 6 -7 7 -6 4 4 -2 8 -14 16 -28 17
-19 1 -20 1 -4 -4z"/>
<path d="M5546 4421 c-3 -4 3 -16 14 -26 20 -18 25 -11 14 19 -7 18 -20 21
-28 7z"/>
<path d="M3246 4397 c3 -10 9 -15 12 -12 3 3 0 11 -7 18 -10 9 -11 8 -5 -6z"/>
<path d="M3436 4383 c-6 -14 -5 -15 5 -6 7 7 10 15 7 18 -3 3 -9 -2 -12 -12z"/>
<path d="M2855 4372 c-5 -4 -16 -17 -23 -30 -12 -21 -11 -22 7 -10 11 7 18 15
15 19 -2 4 4 12 13 18 10 6 14 10 8 11 -5 0 -14 -4 -20 -8z"/>
<path d="M2646 4357 c3 -10 9 -15 12 -12 3 3 0 11 -7 18 -10 9 -11 8 -5 -6z"/>
<path d="M3277 4364 c-4 -4 -7 -14 -7 -23 0 -11 3 -12 11 -4 6 6 10 16 7 23
-2 6 -7 8 -11 4z"/>
<path d="M3407 4346 c-4 -10 -1 -13 9 -9 15 6 19 23 5 23 -5 0 -11 -7 -14 -14z"/>
<path d="M2065 4340 c-16 -7 -17 -9 -3 -9 9 -1 20 4 23 9 7 11 7 11 -20 0z"/>
<path d="M1793 4333 c15 -2 37 -2 50 0 12 2 0 4 -28 4 -27 0 -38 -2 -22 -4z"/>
<path d="M1988 4333 c12 -2 30 -2 40 0 9 3 -1 5 -23 4 -22 0 -30 -2 -17 -4z"/>
<path d="M1730 4320 c0 -5 7 -7 15 -4 8 4 15 8 15 10 0 2 -7 4 -15 4 -8 0 -15
-4 -15 -10z"/>
<path d="M2705 4320 c4 -6 11 -8 16 -5 14 9 11 15 -7 15 -8 0 -12 -5 -9 -10z"/>
<path d="M3223 4293 c-43 -55 -51 -72 -20 -43 15 14 27 31 27 38 0 6 4 12 9
12 5 0 11 7 15 15 9 24 0 18 -31 -22z"/>
<path d="M2748 4303 c6 -2 18 -2 25 0 6 3 1 5 -13 5 -14 0 -19 -2 -12 -5z"/>
<path d="M3366 4273 c-6 -14 -5 -15 5 -6 7 7 10 15 7 18 -3 3 -9 -2 -12 -12z"/>
<path d="M3170 4210 c-9 -6 -10 -10 -3 -10 6 0 15 5 18 10 8 12 4 12 -15 0z"/>
<path d="M3149 4162 c-3 -20 -2 -29 4 -23 5 5 7 19 5 32 -3 20 -5 19 -9 -9z"/>
<path d="M3305 4179 c-4 -6 -5 -12 -2 -15 2 -3 7 2 10 11 7 17 1 20 -8 4z"/>
<path d="M3275 4139 c-4 -6 -5 -12 -2 -15 2 -3 7 2 10 11 7 17 1 20 -8 4z"/>
<path d="M3132 4063 c2 -47 7 -58 21 -61 16 -3 17 -1 8 16 -6 12 -11 39 -11
61 0 23 -5 41 -10 41 -7 0 -10 -22 -8 -57z"/>
<path d="M5860 3927 c0 -8 7 -20 15 -27 8 -7 12 -16 9 -21 -6 -10 255 -13 280
-3 34 13 17 34 -27 34 -41 0 -177 14 -244 25 -24 4 -33 2 -33 -8z"/>
<path d="M4090 4110 c0 -5 -6 -10 -13 -10 -8 0 -24 -9 -37 -20 -13 -11 -29
-20 -35 -20 -7 0 -15 -7 -19 -15 -3 -8 -10 -15 -16 -15 -12 0 -50 -36 -50 -47
0 -5 -11 -21 -25 -37 -14 -16 -30 -44 -37 -62 -7 -19 -15 -34 -19 -34 -9 0
-33 -99 -26 -106 3 -3 8 13 12 35 4 23 11 41 16 41 5 0 9 6 9 13 0 7 16 36 35
66 19 29 35 55 35 57 0 7 40 44 48 44 4 0 20 14 36 30 16 16 38 33 50 36 12 4
24 11 27 16 3 5 25 12 48 15 52 7 53 23 1 23 -22 0 -40 -4 -40 -10z"/>
<path d="M4260 4111 c0 -5 16 -12 36 -16 20 -3 41 -10 48 -16 58 -46 75 -59
81 -59 6 0 -6 12 -64 60 -13 11 -30 20 -38 20 -7 0 -13 5 -13 10 0 6 -11 10
-25 10 -14 0 -25 -4 -25 -9z"/>
<path d="M4120 4012 c-19 -9 -36 -20 -38 -24 -2 -5 -10 -8 -19 -8 -12 0 -14
-13 -11 -69 1 -39 -1 -73 -5 -77 -16 -17 -5 -23 12 -6 55 49 107 72 166 72 73
0 122 -29 188 -109 9 -12 17 -26 17 -31 0 -6 4 -10 9 -10 5 0 15 -26 22 -57 7
-32 16 -60 20 -63 4 -3 10 -21 12 -40 3 -19 4 7 3 57 -1 51 1 87 6 80 4 -6 5
4 1 23 -9 49 -66 157 -90 173 -7 4 -13 15 -13 22 0 8 -6 15 -13 15 -7 0 -23 9
-34 20 -12 10 -33 22 -47 26 -15 3 -29 10 -32 15 -9 15 -117 9 -154 -9z"/>
<path d="M4686 3971 c-4 -5 3 -7 14 -4 23 6 26 13 6 13 -8 0 -17 -4 -20 -9z"/>
<path d="M4700 3943 c-13 -15 -12 -16 4 -10 10 4 20 7 22 7 2 0 4 5 4 10 0 15
-13 12 -30 -7z"/>
<path d="M4698 3903 c7 -3 16 -2 19 1 4 3 -2 6 -13 5 -11 0 -14 -3 -6 -6z"/>
<path d="M4160 3861 c0 -5 -13 -12 -29 -16 -16 -3 -32 -13 -35 -21 -3 -8 -12
-14 -21 -14 -8 0 -15 -7 -15 -15 0 -8 -10 -25 -21 -36 -21 -21 -40 -109 -25
-109 11 0 36 27 36 38 0 5 9 20 21 33 11 13 24 29 27 35 4 5 23 20 43 32 45
27 156 32 165 7 4 -8 12 -15 20 -15 7 0 18 -9 24 -19 5 -11 16 -26 24 -34 18
-17 46 -80 57 -127 7 -29 8 -26 4 20 -6 88 -84 212 -142 226 -13 4 -23 10 -23
15 0 5 -25 9 -55 9 -30 0 -55 -4 -55 -9z"/>
<path d="M4760 3860 c0 -5 5 -10 10 -10 6 0 10 5 10 10 0 6 -4 10 -10 10 -5 0
-10 -4 -10 -10z"/>
<path d="M4728 3843 c7 -3 16 -2 19 1 4 3 -2 6 -13 5 -11 0 -14 -3 -6 -6z"/>
<path d="M4738 3773 c7 -3 16 -2 19 1 4 3 -2 6 -13 5 -11 0 -14 -3 -6 -6z"/>
<path d="M4758 3743 c7 -3 16 -2 19 1 4 3 -2 6 -13 5 -11 0 -14 -3 -6 -6z"/>
<path d="M3790 3721 c0 -25 6 -27 13 -6 4 8 2 17 -3 20 -6 4 -10 -3 -10 -14z"/>
<path d="M4778 3713 c6 -2 18 -2 25 0 6 3 1 5 -13 5 -14 0 -19 -2 -12 -5z"/>
<path d="M3781 3664 c0 -11 3 -14 6 -6 3 7 2 16 -1 19 -3 4 -6 -2 -5 -13z"/>
<path d="M4757 3637 c-4 -10 3 -12 24 -9 16 2 29 8 29 13 0 14 -47 10 -53 -4z"/>
<path d="M4768 3593 c6 -2 18 -2 25 0 6 3 1 5 -13 5 -14 0 -19 -2 -12 -5z"/>
<path d="M4773 3563 c9 -2 25 -2 35 0 9 3 1 5 -18 5 -19 0 -27 -2 -17 -5z"/>
<path d="M4778 3523 c7 -3 16 -2 19 1 4 3 -2 6 -13 5 -11 0 -14 -3 -6 -6z"/>
<path d="M4188 3358 c-24 -19 -31 -20 -54 -9 -22 10 -26 9 -21 -3 28 -73 30
-94 9 -116 l-20 -22 -14 21 c-17 27 -28 27 -28 -1 0 -12 3 -18 7 -15 3 4 16
-5 29 -18 13 -14 28 -25 34 -25 6 0 8 -4 5 -10 -3 -5 7 -12 22 -16 15 -4 33
-10 38 -15 23 -17 170 59 150 79 -3 4 -9 1 -14 -6 -11 -18 -121 -24 -121 -7 0
7 -6 15 -14 18 -11 4 -13 17 -9 49 2 23 8 45 12 48 11 7 31 46 31 59 0 16 -11
13 -42 -11z m112 -186 c0 -5 -7 -9 -15 -9 -8 0 -12 4 -9 9 3 4 9 8 15 8 5 0 9
-4 9 -8z"/>
<path d="M4434 3288 c-44 -97 -106 -171 -169 -199 -77 -35 -145 -18 -216 53
-24 24 -40 35 -36 24 14 -36 53 -75 100 -100 85 -45 162 -30 239 47 43 43 63
69 74 97 3 8 9 22 13 30 12 23 24 80 16 80 -3 0 -13 -15 -21 -32z"/>
<path d="M4652 3265 c0 -16 2 -22 5 -12 2 9 2 23 0 30 -3 6 -5 -1 -5 -18z"/>
<path d="M4365 3239 c-4 -6 -5 -12 -2 -15 2 -3 7 2 10 11 7 17 1 20 -8 4z"/>
<path d="M4720 3230 c0 -5 7 -10 16 -10 8 0 12 5 9 10 -3 6 -10 10 -16 10 -5
0 -9 -4 -9 -10z"/>
<path d="M4628 3186 c-7 -25 -16 -46 -20 -46 -4 0 -8 -8 -8 -18 0 -10 -9 -35
-20 -57 -11 -22 -20 -45 -20 -52 0 -8 -7 -16 -15 -19 -8 -4 -15 -10 -15 -15 0
-23 -101 -138 -162 -186 -82 -63 -239 -79 -335 -33 -29 14 -53 28 -53 32 0 5
-7 8 -15 8 -17 0 -86 64 -122 113 -13 17 -23 26 -23 20 0 -7 7 -18 15 -27 8
-8 15 -19 15 -25 0 -11 97 -111 108 -111 5 0 18 -9 30 -20 47 -44 108 -68 166
-65 53 3 111 17 148 36 10 5 25 9 33 9 8 0 20 9 27 20 7 11 17 20 22 20 5 0
16 7 25 15 9 8 30 27 46 42 35 33 105 133 105 151 0 6 4 12 8 12 5 0 15 19 22
43 8 23 17 44 21 47 9 7 41 141 35 147 -3 3 -11 -15 -18 -41z"/>
<path d="M4720 3195 c0 -8 4 -15 10 -15 5 0 7 7 4 15 -4 8 -8 15 -10 15 -2 0
-4 -7 -4 -15z"/>
<path d="M4710 3160 c0 -5 5 -10 11 -10 5 0 7 5 4 10 -3 6 -8 10 -11 10 -2 0
-4 -4 -4 -10z"/>
<path d="M4690 3130 c0 -5 7 -10 15 -10 8 0 15 5 15 10 0 6 -7 10 -15 10 -8 0
-15 -4 -15 -10z"/>
<path d="M4686 3101 c-3 -5 4 -11 16 -14 29 -8 32 -4 8 11 -10 6 -21 8 -24 3z"/>
<path d="M6660 3992 c0 -4 9 -13 20 -20 19 -12 20 -11 8 8 -13 20 -28 27 -28
12z"/>
<path d="M6711 3434 c0 -11 3 -14 6 -6 3 7 2 16 -1 19 -3 4 -6 -2 -5 -13z"/>
<path d="M6871 3264 c0 -11 3 -14 6 -6 3 7 2 16 -1 19 -3 4 -6 -2 -5 -13z"/>
<path d="M1755 3810 c-39 -17 -93 -77 -116 -130 -5 -14 -17 -38 -25 -54 -8
-16 -14 -39 -13 -50 0 -16 3 -13 12 11 7 17 15 35 20 39 4 4 7 16 7 26 0 10 5
18 10 18 6 0 10 6 10 13 0 18 68 90 99 107 14 7 36 16 50 21 26 7 26 7 -4 8
-16 0 -39 -4 -50 -9z"/>
<path d="M1845 3800 c3 -5 8 -10 11 -10 2 0 4 5 4 10 0 6 -5 10 -11 10 -5 0
-7 -4 -4 -10z"/>
<path d="M1870 3786 c0 -2 7 -7 16 -10 8 -3 12 -2 9 4 -6 10 -25 14 -25 6z"/>
<path d="M1764 3734 c-34 -17 -71 -70 -53 -76 9 -3 9 -9 1 -24 -6 -11 -7 -26
-3 -32 9 -15 37 -6 45 14 3 8 12 14 21 14 8 0 15 5 15 10 0 19 69 11 96 -12
34 -30 64 -80 64 -107 0 -11 5 -21 10 -21 6 0 10 -13 10 -29 0 -17 4 -32 9
-35 5 -4 8 2 6 11 -2 10 -9 47 -15 83 -19 102 -52 164 -109 202 -32 22 -57 22
-97 2z"/>
<path d="M1562 3648 c-14 -14 -16 -38 -3 -38 5 0 11 11 13 25 6 29 6 29 -10
13z"/>
<path d="M1789 3622 c-30 -13 -70 -71 -76 -109 l-5 -38 25 35 c32 45 60 68 92
76 21 5 32 -1 60 -31 19 -20 35 -30 35 -22 0 22 -75 97 -96 96 -10 0 -26 -3
-35 -7z"/>
<path d="M1542 3580 c0 -14 2 -19 5 -12 2 6 2 18 0 25 -3 6 -5 1 -5 -13z"/>
<path d="M1580 3535 c1 -26 2 -28 11 -12 8 14 8 22 0 30 -8 8 -11 3 -11 -18z"/>
<path d="M2203 3465 c0 -22 2 -30 4 -17 2 12 2 30 0 40 -3 9 -5 -1 -4 -23z"/>
<path d="M1572 3460 c0 -19 2 -27 5 -17 2 9 2 25 0 35 -3 9 -5 1 -5 -18z"/>
<path d="M1513 3425 c0 -27 2 -38 4 -22 2 15 2 37 0 50 -2 12 -4 0 -4 -28z"/>
<path d="M2203 3345 c0 -22 2 -30 4 -17 2 12 2 30 0 40 -3 9 -5 -1 -4 -23z"/>
<path d="M1770 3335 c0 -14 5 -25 10 -25 6 0 10 11 10 25 0 14 -4 25 -10 25
-5 0 -10 -11 -10 -25z"/>
<path d="M1725 3223 c-5 -23 3 -74 14 -83 4 -3 12 -17 18 -32 10 -23 19 -28
48 -28 40 0 49 24 13 36 -12 3 -28 12 -35 20 -15 15 -17 51 -4 56 5 2 12 14
16 28 5 23 3 25 -29 25 -28 0 -36 -5 -41 -22z"/>
<path d="M1905 3137 c-43 -90 -100 -125 -151 -92 -14 9 -28 15 -30 12 -5 -4 5
-15 40 -44 18 -15 60 -17 51 -3 -3 6 3 10 14 10 23 0 68 51 88 98 21 51 11 67
-12 19z"/>
<path d="M2080 3169 c0 -5 5 -7 10 -4 6 3 10 8 10 11 0 2 -4 4 -10 4 -5 0 -10
-5 -10 -11z"/>
<path d="M2065 3070 c-3 -5 -1 -10 4 -10 6 0 11 5 11 10 0 6 -2 10 -4 10 -3 0
-8 -4 -11 -10z"/>
<path d="M7290 6314 c-14 -7 -25 -17 -24 -21 1 -17 25 -59 54 -98 16 -22 37
-56 46 -75 9 -19 26 -49 39 -66 13 -17 36 -53 51 -79 40 -73 94 -145 108 -145
7 0 21 9 30 19 16 18 16 22 -15 78 -18 32 -45 76 -60 98 -45 67 -114 178 -141
225 -38 66 -57 80 -88 64z"/>
<path d="M7610 5552 c0 -4 4 -12 8 -17 5 -6 19 -36 32 -67 22 -56 40 -75 40
-42 0 29 -52 134 -66 134 -8 0 -14 -4 -14 -8z"/>
<path d="M7890 4300 c0 -75 12 -103 26 -65 9 22 -6 145 -17 145 -5 0 -9 -36
-9 -80z"/>
<path d="M443 4800 c-23 -10 -21 6 -48 -260 -9 -80 -20 -185 -26 -233 -6 -49
-9 -90 -7 -92 1 -2 23 -5 48 -6 l45 -4 6 70 c4 39 15 144 25 235 25 223 25
269 -1 285 -13 9 -28 10 -42 5z m7 -320 c0 -5 -9 -10 -19 -10 -11 0 -23 5 -26
10 -4 6 5 10 19 10 14 0 26 -4 26 -10z m-7 -177 c-7 -2 -19 -2 -25 0 -7 3 -2
5 12 5 14 0 19 -2 13 -5z"/>
<path d="M578 4780 c-11 -7 -19 -29 -23 -68 -11 -107 -25 -237 -40 -371 -9
-73 -14 -135 -13 -137 2 -2 22 -6 45 -10 41 -6 42 -6 48 27 3 19 9 72 14 119
5 47 17 160 27 252 14 137 15 169 5 182 -15 18 -38 20 -63 6z"/>
</g>
</svg>
